# xmcd
#
# Track frame offsets: 
#        150
#        28595
#        51505
#        69375
#        102070
#        121460
#        146340
#        165100
#        184635
#        199060
#        218690
#        239452
#        257734
#        273231
#        288893
#
# Disc length: 4119 seconds
#
# Revision: 1
# Processed by: cddbd v1.5.2PL0 Copyright (c) Steve Scherf et al.
# Submitted via: ExactAudioCopy v0.99pb3
#
DISCID=d110150f
DTITLE=Chet Baker and Art Pepper - Complete Recordings- Disc 01
DYEAR=2007
DGENRE=Jazz
TTITLE0=Tynan Tyme
TTITLE1=The Route
TTITLE2=Sonny Boy
TTITLE3=Minor Yours
TTITLE4=Little Girl
TTITLE5=Ol' Croix
TTITLE6=I Can't Give You Anything But Love
TTITLE7=The Great Lie
TTITLE8=Sweet Lorraine
TTITLE9=If I Should Lose You
TTITLE10=Younger Than Springtime
TTITLE11=Tenderly
TTITLE12=A Foggy Day
TTITLE13=Darn That Dream
TTITLE14=Mythe
EXTD=YEAR: 2007
EXTT0=
EXTT1=
EXTT2=
EXTT3=
EXTT4=
EXTT5=
EXTT6=
EXTT7=
EXTT8=
EXTT9=
EXTT10=
EXTT11=
EXTT12=
EXTT13=
EXTT14=
PLAYORDER=
